
<svg xmlns="http://www.w3.org/2000/svg" width="1440" height="800" viewBox="0 0 1440 800" fill="none">
<g clip-path="url(#clip0)">
<path d="M1228.27 628.604C859.301 857.463 522.652 564.494 350.189 713.839C350.189 713.839 579.696 947.3 468.453 1290.43C752.711 1330.92 974.01 1216.92 974.01 1216.92M1228.38 628.475C872.575 855.734 546.136 579.654 370.317 730.051C370.317 730.051 585.445 959.667 468.456 1290.43M1228.38 628.475C899.175 852.27 593.152 609.913 410.573 762.537C410.573 762.537 596.59 984.438 468.443 1290.32M1228.38 628.475C912.447 850.541 616.628 625.016 430.699 778.75C430.699 778.75 602.163 996.823 468.456 1290.43M1228.38 628.475C925.776 848.807 640.167 640.172 450.824 794.963C450.824 794.963 607.736 1009.21 468.456 1290.43M1228.38 628.475C939.048 847.078 663.643 655.275 470.956 811.234C470.956 811.234 613.302 1021.53 468.456 1290.43M1228.38 628.475C952.319 845.349 687.183 670.43 491.314 827.423C491.314 827.423 619.166 1033.89 468.862 1290.39M1228.38 628.475C965.63 843.44 710.723 685.585 511.207 843.661C511.207 843.661 624.506 1046.3 468.456 1290.43M1228.38 628.475C978.938 842.059 734.199 700.688 531.332 859.874C531.332 859.874 630.079 1058.68 468.456 1290.43M1228.38 628.475C992.255 840.208 757.739 715.843 551.464 876.145C551.464 876.145 635.651 1071.07 468.456 1290.43M1228.38 628.475C1005.53 838.479 781.214 730.946 571.531 892.364C571.531 892.364 641.224 1083.46 468.431 1290.2M1228.38 628.475C1018.8 836.751 804.754 746.101 591.657 908.578C591.657 908.578 646.791 1095.78 468.456 1290.43M1228.38 628.475C1032.15 835.19 828.288 761.198 611.782 924.791C611.782 924.791 652.376 1108.28 468.456 1290.43M1228.38 628.475C1045.4 833.287 851.77 776.359 631.914 941.062C631.914 941.062 657.936 1120.55 468.456 1290.43M1228.38 628.475C1058.67 831.558 875.246 791.462 652.039 957.275C652.039 957.275 663.509 1132.94 468.456 1290.43M1228.38 628.475C1072.01 829.881 898.785 806.617 672.176 973.605C672.176 973.605 669.094 1145.44 468.468 1290.55M1228.38 628.475C1085.28 828.152 922.319 821.714 692.29 989.702C692.29 989.702 674.48 1157.73 468.456 1290.43M1228.38 628.475C1098.55 826.424 945.801 836.875 712.421 1005.97C712.421 1005.97 680.221 1170.04 468.456 1290.43M1228.38 628.475C1111.88 824.689 969.335 851.972 732.547 1022.19C732.547 1022.19 685.794 1182.42 468.456 1290.43M1228.38 628.475C1125.21 822.954 992.817 867.133 752.672 1038.4C752.672 1038.4 691.367 1194.81 468.456 1290.43M1228.38 628.475C1138.42 821.231 1016.35 882.231 772.798 1054.61C772.798 1054.61 696.94 1207.19 468.339 1290.45C741.451 1306.16 933.645 1184.51 933.645 1184.51C1204.41 1003.26 1244.77 807.44 1228.38 628.475ZM1228.38 628.475C1151.75 819.496 1039.83 897.392 792.639 1070.91C792.639 1070.91 702.338 1219.59 468.223 1290.46M1228.38 628.475C1165.03 817.825 1063.37 912.489 812.997 1087.1C812.997 1087.1 708.079 1231.9 468.456 1290.43M1228.38 628.475C1178.3 816.096 1086.85 927.65 833.146 1103.55C833.146 1103.55 713.676 1244.52 468.48 1290.67M1228.38 628.475C1191.6 814.129 1110.38 942.747 853.247 1119.53C853.247 1119.53 719.218 1256.62 468.456 1290.43M1228.38 628.475C1204.91 812.749 1133.92 957.902 873.379 1135.8C873.379 1135.8 724.855 1269.05 468.456 1290.43M1228.38 628.475C1217.94 810.928 1157.4 973.005 893.504 1152.01C893.504 1152.01 730.719 1281.41 468.456 1290.43M1228.38 628.475C1231.5 809.169 1180.94 988.16 913.63 1168.23C913.63 1168.23 736.001 1293.82 468.189 1290.7M1228.38 628.475C1258.1 805.705 1227.72 1018.44 953.886 1200.71C953.886 1200.71 747.14 1318.54 468.456 1290.43M1228.38 628.475C1271.38 804.035 1251.43 1033.52 974.012 1216.92M1228.38 628.475C1222.67 605.194 1215.95 582.839 1208.6 561.84C1183.23 489.615 1147.65 421.388 1102.94 359.229C1119.76 313.082 1141.95 269.063 1169.04 228.076C1170.66 225.619 1172.06 223.245 1173.8 220.777L1178.55 214.419C1237.76 132.373 1337.68 39.5924 1501.64 -1.99659C1507.37 -3.41195 1513.11 -4.71125 1518.85 -6.01055M1228.38 628.478C885.904 854.001 569.612 594.76 390.448 746.325C390.448 746.325 590.999 971.88 468.456 1290.44M1228.38 628.476C1271.38 804.036 1251.43 1033.52 974.01 1216.92M974.01 1216.92C1174.81 1131.74 1340.28 980.313 1442.75 787.957C1452.92 768.777 1462.59 749.354 1471.23 729.571C1499.27 663.845 1521.03 595.616 1536.19 525.799C1546.66 480.755 1554.13 435.067 1558.54 389.037C1558.79 386.313 1559.09 383.584 1559.34 380.86L1559.97 373.403C1568.06 273.648 1561.6 173.251 1540.8 75.3581C1535.99 52.8043 1530.02 30.9575 1523.62 9.39099C1522.08 4.21248 1520.49 -0.901976 1518.9 -6.01643M974.01 1216.92C1173.85 1130.38 1337.11 976.752 1435.5 782.667C1445.25 763.355 1454.39 743.929 1462.36 723.979C1489.73 655.971 1506.78 586.511 1521.77 520.432C1532.49 475.358 1540.44 429.674 1545.58 383.636C1545.89 380.964 1546.14 378.24 1546.44 375.51L1547.26 368.093C1557.19 269.888 1553.84 170.798 1537.31 73.4906C1533.5 51.4207 1528.29 30.0818 1522.87 9.05725C1521.61 4.26086 1520.25 -0.993779 1518.9 -6.01628M1518.9 -6.01519C1528.42 21.1534 1537.39 48.7304 1544.39 77.1568C1601.86 303.833 1575.88 543.606 1471.19 752.805C1366.5 962.004 1190.06 1126.71 974.011 1216.93M974.012 1216.92C1173.1 1129.13 1334.27 973.224 1428.49 777.294C1437.57 757.874 1446.42 738.421 1453.74 718.363C1479.11 648.743 1492.85 578.512 1507.55 514.693C1518.39 469.796 1526.75 424.34 1532.61 378.53C1532.97 375.852 1533.28 373.122 1533.65 370.445C1534.01 367.767 1534.25 365.513 1534.52 363.022C1546.07 266.295 1545.79 168.526 1533.68 71.873C1530.8 50.293 1526.58 29.438 1522.16 8.89727C1521.12 3.96069 1520.02 -0.911831 1518.93 -5.78435M974.012 1216.92C1172.31 1127.89 1331.32 969.699 1421.24 772.004C1429.79 752.465 1438.27 732.873 1444.87 712.772C1468.37 641.47 1478.83 570.699 1492.76 509.13C1503.95 463.702 1512.85 418.316 1519.46 372.972C1519.88 370.23 1520.25 367.553 1520.62 364.875C1520.98 362.197 1521.34 359.989 1521.68 357.55C1534.8 262.229 1537.54 165.771 1529.83 69.8674C1527.99 48.7072 1524.64 28.2901 1521.27 8.28526C1520.77 3.46852 1519.63 -1.28191 1518.79 -6.00444M974.012 1216.92C1171.71 1126.69 1328.64 966.099 1414.15 766.522C1422.21 746.798 1430.28 727.191 1436.23 707.04C1458.02 633.921 1465.01 562.63 1478.41 503.228C1489.91 457.846 1499.31 412.623 1506.62 367.558L1507.9 359.507C1508.29 357.061 1508.75 354.668 1509.08 352.228C1523.71 258.329 1529.48 163.268 1526.32 68.2959C1525.45 47.3874 1523.04 27.5763 1520.7 7.87516L1518.91 -6.0166M974.012 1216.92C1194.34 1112.3 1331.2 945.236 1407.04 761.394C1414.88 741.837 1421.69 721.884 1427.45 701.616C1447.17 626.776 1451.06 554.986 1464.01 498.035C1475.7 452.242 1485.57 406.971 1493.61 362.221L1495.07 354.209C1495.52 351.758 1495.98 349.364 1496.37 346.918C1512.48 254.183 1521.24 160.327 1522.58 66.2203C1522.72 46.0278 1521.52 26.5024 1519.95 7.48334C1519.48 2.95676 1519.02 -1.51188 1518.91 -6.0166M974.012 1216.92C1196.61 1109.19 1328.79 939.62 1399.93 756.266C1407.29 736.617 1413.56 716.58 1418.73 696.245C1436.18 619.352 1437.15 547.161 1449.59 492.726C1461.58 446.746 1471.95 401.521 1480.69 357.051C1481.23 354.413 1481.66 351.73 1482.21 349.092C1482.76 346.454 1483.24 344.292 1483.69 341.841C1501.22 250.173 1512.98 157.502 1518.92 64.3708C1519.99 44.6682 1519.49 25.6567 1519.21 7.14946C1519.05 2.7088 1519.04 -1.33778 1518.91 -6.0166M974.012 1216.92C1198.92 1106.01 1326.45 933.997 1392.72 750.738C1399.6 730.931 1405.35 710.75 1409.94 690.293C1425.71 611.816 1423.23 539.22 1435.12 486.837C1447.36 440.674 1458.21 395.517 1467.64 351.366C1468.25 348.722 1468.74 346.09 1469.34 343.388C1469.94 340.686 1470.43 338.64 1470.94 336.183C1489.53 245.271 1505.81 150.257 1515.27 62.5212C1517.39 43.3545 1517.75 24.7809 1518.47 6.75754C1518.67 2.45481 1518.58 -1.75984 1518.91 -6.0166M974.012 1216.92C1201.18 1102.85 1323.99 928.387 1385.59 745.435C1391.97 725.544 1397.18 705.3 1401.21 684.805C1414.96 604.426 1409.32 531.454 1420.69 481.354C1433.18 434.892 1444.55 389.797 1454.82 346.068C1455.42 343.424 1455.98 340.844 1456.64 338.136L1458.36 330.977C1478.39 240.913 1497.71 146.933 1511.67 60.7237C1514.73 42.0469 1516.08 23.8991 1517.78 6.3596C1518.17 2.21288 1518.57 -1.87591 1518.91 -6.0166M974.012 1216.92C1203.5 1099.73 1321.64 922.764 1378.46 740.075C1384.31 720.092 1388.99 699.786 1392.47 679.259C1404.16 597.158 1395.36 523.692 1406.19 475.818C1419 429.401 1430.84 384.473 1441.73 341.032L1443.67 333.146C1444.3 330.734 1444.99 328.375 1445.57 325.969C1466.96 236.643 1489.32 143.638 1507.9 58.8855C1511.9 40.8727 1514.22 23.0347 1517.04 5.967C1517.68 1.97027 1518.26 -2.02044 1518.91 -5.95914M974.012 1216.92C1205.75 1096.57 1319.24 917.148 1371.27 734.779C1376.64 714.67 1380.8 694.26 1383.72 673.656C1393.26 589.49 1381.45 515.868 1391.99 470.254C1405.09 423.611 1417.41 378.651 1428.98 335.375C1429.64 332.725 1430.32 330.133 1431.04 327.477C1431.76 324.821 1432.43 322.757 1433.06 320.345C1455.76 232.291 1481.05 140.332 1504.18 57.0427C1509.12 39.4617 1512.31 22.1777 1516.47 5.61571C1517.18 1.72901 1518.01 -2.16985 1518.91 -6.0166M974.012 1216.92C1207.89 1093.41 1316.83 911.532 1363.97 729.495C1368.82 709.263 1372.42 688.751 1374.75 668.077C1382.3 581.828 1367.54 508.043 1377.35 465.027L1417.97 322.145C1418.67 319.785 1419.43 317.478 1420.06 315.066C1444.5 227.946 1472.66 137.038 1500.53 55.2512C1506.33 38.1081 1510.64 21.2959 1515.55 5.24188L1518.91 -6.0166M974.012 1216.92C1210.33 1090.28 1314.49 905.909 1357.01 724.175C1361.34 703.809 1364.4 683.197 1366.17 662.455C1371.32 574.463 1353.62 500.161 1362.7 459.155C1376.39 412.217 1389.76 367.385 1402.79 324.659C1403.57 322.055 1404.25 319.464 1405.09 316.854C1405.94 314.244 1406.66 312.174 1407.36 309.814C1433.19 223.664 1464.22 133.807 1496.82 53.4076C1503.55 36.8125 1508.84 20.4261 1514.82 4.96603L1518.91 -6.0166M974.012 1216.92C1212.64 1087.11 1312.08 900.293 1349.88 718.815C1353.67 698.334 1356.19 677.641 1357.43 656.851C1360.26 566.929 1339.66 492.4 1348.5 453.59C1362.29 406.523 1376.05 361.748 1389.78 319.264C1390.62 316.654 1391.36 314.114 1392.26 311.498C1393.16 308.882 1393.89 306.87 1394.65 304.504C1421.94 218.157 1454.85 133.681 1493.17 51.6161C1500.8 35.7491 1507.05 19.5564 1514.06 4.45805L1518.91 -6.0166M974.012 1216.92C1214.9 1083.94 1309.68 894.676 1342.69 713.519C1345.99 692.927 1348 672.148 1348.69 651.306C1349.26 559.389 1325.51 484.541 1334 448.055C1348.13 400.759 1362.38 356.049 1376.77 313.926C1377.67 311.31 1378.47 308.764 1379.43 306.142C1380.39 303.52 1381.13 301.567 1381.94 299.195C1410.74 213.203 1446.7 129.77 1489.45 49.7726C1497.99 34.1633 1505.26 18.6866 1513.32 4.12416C1515.2 0.703244 1517.02 -2.65371 1518.91 -6.0166M974.012 1216.92C1217.22 1080.83 1307.28 889.06 1335.56 708.216C1338.3 687.487 1339.76 666.61 1339.94 645.702C1338.15 552.035 1311.84 476.692 1319.57 442.514C1333.95 395.112 1348.7 350.449 1363.82 308.524C1364.72 305.966 1365.58 303.414 1366.54 300.85C1367.51 298.286 1368.36 296.263 1369.23 293.885C1399.52 208.12 1438.58 125.697 1485.79 47.9231C1495.16 32.8738 1503.47 17.8749 1512.63 3.72622C1514.7 0.461311 1516.77 -2.8037 1518.91 -6.0166M974.012 1216.92C1219.42 1077.67 1304.96 883.141 1328.43 702.914C1330.65 681.996 1331.54 660.96 1331.12 639.93C1327.06 544.211 1297.91 468.694 1305.11 436.799C1319.73 389.177 1335.09 344.705 1350.79 303.013C1351.76 300.449 1352.67 297.891 1353.69 295.321C1354.72 292.751 1355.63 290.779 1356.5 288.401C1387.92 206.305 1429.93 120.354 1482.08 46.1376C1492.32 31.5262 1501.67 16.9471 1511.89 3.3343L1518.91 -6.0166M974.012 1216.92C1221.73 1074.5 1302.53 877.821 1321.24 697.56C1322.95 676.585 1323.33 655.524 1322.39 634.501C1315.73 536.882 1283.96 461.049 1290.69 431.374C1305.59 383.664 1321.48 339.196 1337.86 297.843C1338.89 295.273 1339.74 292.721 1340.88 290.139C1342.02 287.557 1342.88 285.591 1343.81 283.266C1376.49 201.977 1421.23 116.858 1478.43 44.2881C1489.53 30.1725 1499.88 16.0774 1511.14 2.94239L1518.91 -6.0166M974.012 1216.92C1224.05 1071.38 1300.09 871.915 1314.11 692.258C1315.18 671.151 1314.95 649.999 1313.42 628.921C1304.21 529.454 1269.81 453.19 1276.02 425.857C1291.19 377.943 1307.56 333.6 1324.62 292.472C1325.7 289.896 1326.62 287.396 1327.76 284.814C1328.9 282.231 1329.88 280.312 1330.87 277.98C1365.23 197.574 1412.53 113.419 1474.71 42.4445C1486.52 28.843 1498.08 15.2076 1510.4 2.55047L1518.91 -6.0166M974.012 1216.92C1226.31 1068.21 1297.68 866.24 1306.69 686.986C1307.28 665.762 1306.58 644.522 1304.62 623.382C1292.86 521.95 1255.84 445.372 1261.52 420.322C1276.07 375.1 1292.88 330.637 1311.9 287.104C1312.99 284.528 1313.96 282.022 1315.17 279.492C1316.37 276.962 1317.34 274.984 1318.39 272.646C1353.85 193.24 1403.76 109.871 1471.06 40.653C1483.86 27.5934 1496.31 14.57 1509.66 2.21659L1518.91 -6.0166M974.012 1216.92C1228.45 1065.06 1295.34 860.618 1299.85 681.596C1299.85 660.162 1298.61 638.747 1296.13 617.458C1281.78 514.185 1242.19 437.227 1247.35 414.46C1262.04 369.285 1279.24 324.965 1298.89 281.708C1300.04 279.184 1301.07 276.672 1302.33 274.136L1305.66 267.162C1342.47 188.848 1394.7 106.295 1467.34 38.8095C1481 26.0717 1494.44 13.4741 1508.97 1.81864C1512.24 -0.632289 1515.53 -3.43755 1518.91 -6.0166M974.012 1216.92C1230.88 1061.93 1292.94 855.059 1292.66 676.299C1292.18 654.888 1290.44 633.524 1287.43 612.318C1270.65 507.185 1228.27 429.872 1232.96 409.383C1247.82 363.994 1265.5 319.571 1285.88 276.371C1287.09 273.84 1288.18 271.322 1289.44 268.786L1292.98 262.085C1331.1 184.514 1386.27 102.594 1463.86 36.9419C1478.16 24.7241 1492.64 12.5463 1508.22 1.42672L1518.91 -6.0166M974.012 1216.92C1233.2 1058.76 1290.54 849.443 1285.53 670.997C1284.56 649.394 1282.32 627.866 1278.85 606.523C1259.18 499.635 1214.58 421.849 1218.73 403.586C1233.75 358.2 1251.86 313.891 1272.93 270.969C1274.19 268.433 1275.3 266.031 1276.61 263.431C1277.93 260.83 1279.04 259.073 1280.21 256.781C1319.66 180.129 1377.48 98.8716 1459.98 35.1745C1475.31 23.3185 1490.61 11.7007 1507.48 1.03481C1511.22 -1.34829 1515.04 -3.67948 1518.91 -6.0166M974.012 1216.92C1235.45 1055.59 1288.13 843.826 1278.4 665.637C1276.75 643.951 1273.88 622.373 1269.81 601.007C1247.43 492.29 1200.37 414.054 1204 398.075C1219.31 352.598 1238.01 308.327 1259.92 265.631C1261.25 263.089 1262.35 260.687 1263.79 258.133C1265.22 255.579 1266.27 253.769 1267.5 251.471C1308.28 175.737 1368.75 95.085 1456.32 33.3249C1472.46 21.9129 1489.22 10.7307 1506.73 0.642892L1518.91 -6.0166M974.012 1216.92C1237.71 1052.42 1285.73 838.21 1271.21 660.341C1269.04 638.525 1265.68 616.844 1261.13 595.397C1235.98 484.914 1186.52 406.224 1189.45 392.546C1205.03 346.985 1224.26 302.754 1246.98 260.288C1248.3 257.745 1249.46 255.337 1250.9 252.783C1252.33 250.229 1253.56 248.401 1254.79 246.162C1296.9 171.345 1359.97 91.4206 1452.61 31.5395C1469.86 20.2237 1487.68 9.79985 1505.99 0.309009C1510.23 -1.83215 1514.6 -3.92744 1518.91 -6.0166M974.012 1216.92C1239.97 1049.32 1283.39 832.588 1264.08 655.039C1261.36 633.096 1257.46 611.316 1252.38 589.794C1224.47 477.545 1172.43 398.301 1175.19 386.987C1190.9 341.345 1210.55 297.15 1233.91 254.898C1235.29 252.408 1236.51 249.994 1238.01 247.434C1239.5 244.873 1240.73 243.104 1242.05 241.148C1291.85 154.206 1363.07 81.4149 1448.95 29.6899C1467.2 18.8132 1486.01 8.93046 1505.32 0.0851631C1509.73 -2.13212 1514.35 -4.07743 1518.91 -6.0166M974.012 1216.92C1242.28 1046.14 1280.95 826.623 1256.96 649.737C1253.65 627.77 1249.22 605.989 1243.67 584.48C1212.91 470.356 1158.96 390.782 1160.74 381.916C1176.68 336.022 1196.85 291.708 1221.02 249.548C1222.46 247.052 1223.68 244.638 1225.24 242.13C1226.8 239.622 1228.02 237.794 1229.37 235.542C1281.66 148.437 1356.18 76.7597 1445.3 27.8404C1464.52 17.3238 1484.3 7.86921 1504.56 -0.480853C1509.24 -2.37405 1514.1 -4.16938 1518.91 -6.0166M974.012 1216.92C1244.6 1042.97 1278.54 821.007 1249.76 644.383C1245.96 622.202 1240.98 600.241 1234.83 578.593C1201.28 462.998 1144.72 382.639 1146.25 375.853C1162.48 330.044 1183.16 285.933 1208 244.153C1209.51 241.708 1210.79 239.288 1212.35 236.78C1213.91 234.272 1215.25 232.49 1216.69 230.464C1271.45 143.005 1349.26 72.2837 1441.59 26.0549C1461.81 15.92 1482.58 6.92993 1503.81 -0.872768C1508.74 -2.61599 1513.85 -4.31936 1518.91 -6.0166M974.012 1216.92C1246.86 1039.86 1276.13 815.332 1242.63 639.08C1238.17 616.804 1232.55 594.774 1225.8 573.077C1189.37 455.729 1130.53 374.903 1131.52 370.342C1147.96 324.427 1169.15 280.353 1194.77 238.839C1196.27 236.337 1197.61 233.969 1199.23 231.455C1200.85 228.94 1202.19 227.217 1203.68 225.127C1261.24 137.461 1342.42 67.8134 1437.87 24.2114C1459.1 14.4947 1480.87 6.00792 1503.08 -1.20665C1508.24 -2.91595 1513.61 -4.41131 1518.91 -6.0166M974.012 1216.92C1249 1036.71 1273.78 809.652 1235.51 633.778C1230.37 610.848 1224.28 588.427 1217.35 567.443C1177.97 448.347 1116.85 367.054 1117.38 364.77C1134.02 318.741 1155.71 274.688 1182.04 233.413C1183.61 230.963 1184.95 228.595 1186.69 226.127C1188.43 223.659 1189.72 221.883 1191.26 219.787C1251.43 131.914 1335.83 63.3538 1434.22 22.4199C1456.42 13.0474 1479.16 5.02656 1502.33 -1.59857C1507.75 -3.15789 1513.36 -4.56129 1518.91 -6.0166" stroke="#72A2D4" stroke-width="1.2" stroke-miterlimit="10" stroke-linecap="round"/>
</g>
<defs>
<clipPath id="clip0">
<rect width="1090" height="800" fill="white" transform="translate(350)"/>
</clipPath>
</defs>
</svg>